:FULLY-SPECIFIED
:FORCE-ALL-JOINTS-BE-3DOF
:DEGREES
324
root 9.73391 16.3704 9.21134 7.17377 9.55511 4.34217
lfemur 24.4875 4.49444 -22.0642
ltibia -1.06019e-14 0 0
lfoot -6.55971 -4.99 -0.0102382
ltoes -13.9893 0 0
rfemur -42.9444 1.68252 13.1713
rtibia 35.0619 -0 0
rfoot -8.11287 -2.34883 0.0885864
rtoes -26.7017 0 0
lowerback -7.91958 -4.79616 -6.36245
upperback -1.10215 -5.90517 1.79878
thorax 4.11591 -3.04761 4.73059
lowerneck -19.308 -5.24913 -13.0975
upperneck 21.3542 -6.71401 13.1266
head 11.0093 -2.62513 5.98553
lclavicle 5.67282e-14 -1.82882e-14 0
lhumerus -22.2757 -40.2192 99.0054
lradius 41.2463 -0 0
lwrist 10.0089 0 0
lhand -5.38833 -24.4227 0.000230171
lfingers 7.12502 0 0
lthumb 20.4203 4.52353 0.000217653
rclavicle 5.67282e-14 -1.82882e-14 0
rhumerus -50.7854 5.0268 -82.7518
rradius 30.5593 -0 0
rwrist -16.0913 0 0
rhand -29.0293 -23.4209 -0.00057629
rfingers 7.12502 0 0
rthumb -2.37999 -53.3873 -0.000560169
325
root 9.71446 16.357 9.40526 7.03589 9.62955 4.06667
lfemur 25.2445 4.60685 -21.3812
ltibia -2.22639e-14 0 0
lfoot -5.61253 -5.23758 0
ltoes -15.9721 0 0
rfemur -42.9554 1.41571 13.8219
rtibia 36.0984 0 0
rfoot -5.89992 -1.43473 0
rtoes -25.9582 0 0
lowerback -7.84496 -4.75946 -6.09206
upperback -1.11204 -5.88748 1.8652
thorax 4.04119 -3.033 4.65889
lowerneck -19.2679 -5.23091 -13.2079
upperneck 21.2002 -6.68494 13.2864
head 10.9512 -2.60437 6.0651
lclavicle 5.91136e-14 -2.46493e-14 0
lhumerus -22.9838 -40.1631 99.6052
lradius 41.1032 0 0
lwrist 9.53411 0 0
lhand -5.41681 -24.6079 0
lfingers 7.12502 0 0
lthumb 20.3929 4.34126 0
rclavicle 5.91136e-14 -2.46493e-14 0
rhumerus -50.8726 5.02672 -82.7013
rradius 30.5771 0 0
rwrist -16.2647 0 0
rhand -29.1207 -23.2765 0
rfingers 7.12502 0 0
rthumb -2.46829 -53.2419 0
326
root 9.6884 16.3582 9.5961 6.92608 9.5166 3.55129
lfemur 25.7605 4.93723 -20.4411
ltibia -4.77085e-15 0 0
lfoot -3.66335 -4.9029 0.0285347
ltoes -16.3105 0 0
rfemur -42.7628 1.58183 14.7285
rtibia 37.0008 -0 0
rfoot -5.97882 -1.10659 -0.00112972
rtoes -24.3084 0 0
lowerback -7.85882 -4.70289 -5.69408
upperback -1.13729 -5.85135 2.01716
thorax 3.9947 -3.0088 4.60088
lowerneck -19.2752 -5.16258 -13.1373
upperneck 21.1695 -6.60064 13.2679
head 10.9246 -2.56184 6.05791
lclavicle 5.46989e-14 -1.85532e-14 0
lhumerus -23.7676 -39.3081 100.113
lradius 40.4522 -0 0
lwrist 9.26101 0 0
lhand -5.98302 -24.7265 0.00292982
lfingers 7.12502 0 0
lthumb 19.8483 4.27537 0.00156593
rclavicle 5.46989e-14 -1.85532e-14 0
rhumerus -50.5646 5.08482 -82.5964
rradius 30.2956 -0 0
rwrist -15.8249 0 0
rhand -28.3982 -23.8699 -0.0187167
rfingers 7.12502 0 0
rthumb -1.77048 -53.8365 -0.0181145
327
root 9.66234 16.3594 9.78694 6.81735 9.40269 3.0363
lfemur 26.2821 5.25911 -19.4976
ltibia 1.27222e-14 0 0
lfoot -1.71404 -4.56745 0.0456692
ltoes -16.6489 0 0
rfemur -42.5675 1.74488 15.6358
rtibia 37.9033 -0 0
rfoot -6.05772 -0.778446 -0.00180757
rtoes -22.6585 0 0
lowerback -7.87228 -4.64623 -5.29614
upperback -1.16244 -5.81515 2.1691
thorax 3.94819 -2.98465 4.54286
lowerneck -19.2823 -5.09423 -13.0667
upperneck 21.1388 -6.51635 13.2494
head 10.898 -2.51932 6.05069
lclavicle 5.02842e-14 -1.24572e-14 0
lhumerus -24.5323 -38.4479 100.6
lradius 39.8011 -0 0
lwrist 8.98792 0 0
lhand -6.54924 -24.8451 0.00468783
lfingers 7.12502 0 0
lthumb 19.3037 4.20947 0.00250555
rclavicle 5.02842e-14 -1.24572e-14 0
rhumerus -50.2566 5.14236 -82.4913
rradius 30.0141 -0 0
rwrist -15.3851 0 0
rhand -27.6755 -24.4634 -0.0299487
rfingers 7.12502 0 0
rthumb -1.07252 -54.4313 -0.0289851
328
root 9.63629 16.3606 9.97778 6.70969 9.28782 2.5217
lfemur 26.8092 5.57238 -18.5507
ltibia 3.02152e-14 0 0
lfoot 0.235345 -4.23161 0.0513829
ltoes -16.9873 0 0
rfemur -42.3697 1.90482 16.5437
rtibia 38.8058 -0 0
rfoot -6.13663 -0.450303 -0.00203353
rtoes -21.0087 0 0
lowerback -7.88534 -4.58948 -4.89824
upperback -1.18749 -5.77888 2.32102
thorax 3.90166 -2.96055 4.48482
lowerneck -19.2894 -5.02588 -12.9961
upperneck 21.108 -6.43207 13.2308
head 10.8714 -2.4768 6.04346
lclavicle 4.58695e-14 -6.3611e-15 0
lhumerus -25.2789 -37.5828 101.066
lradius 39.1501 -0 0
lwrist 8.71482 0 0
lhand -7.11545 -24.9637 0.00527385
lfingers 7.12502 0 0
lthumb 18.7591 4.14356 0.00281876
rclavicle 4.58695e-14 -6.3611e-15 0
rhumerus -49.9483 5.19933 -82.3858
rradius 29.7327 -0 0
rwrist -14.9453 0 0
rhand -26.9528 -25.0571 -0.033693
rfingers 7.12502 0 0
rthumb -0.37448 -55.0262 -0.0326089
329
root 9.61023 16.3618 10.1686 6.60312 9.17199 2.00748
lfemur 27.3418 5.87692 -17.6004
ltibia 4.77083e-14 0 0
lfoot 2.18473 -3.89577 0.0456692
ltoes -17.3258 0 0
rfemur -42.1694 2.0616 17.4522
rtibia 39.7082 -0 0
rfoot -6.21553 -0.122159 -0.00180757
rtoes -19.3589 0 0
lowerback -7.89801 -4.53263 -4.5004
upperback -1.21244 -5.74255 2.4729
thorax 3.8551 -2.93649 4.42676
lowerneck -19.2964 -4.95752 -12.9256
upperneck 21.0772 -6.3478 13.2122
head 10.8448 -2.43428 6.03621
lclavicle 4.14549e-14 -2.65033e-16 0
lhumerus -26.0081 -36.713 101.513
lradius 38.4991 -0 0
lwrist 8.44172 0 0
lhand -7.68167 -25.0822 0.00468783
lfingers 7.12502 0 0
lthumb 18.2146 4.07766 0.00250555
rclavicle 4.14549e-14 -2.65033e-16 0
rhumerus -49.64 5.25574 -82.28
rradius 29.4512 -0 0
rwrist -14.5055 0 0
rhand -26.2301 -25.6508 -0.0299487
rfingers 7.12502 0 0
rthumb 0.323557 -55.6211 -0.0289851
330
root 9.58417 16.363 10.3595 6.49763 9.05523 1.49366
lfemur 27.8797 6.17261 -16.6468
ltibia 6.52013e-14 0 0
lfoot 4.13404 -3.56032 0.0285347
ltoes -17.6642 0 0
rfemur -41.9666 2.21519 18.3614
rtibia 40.6107 -0 0
rfoot -6.29443 0.205984 -0.00112972
rtoes -17.709 0 0
lowerback -7.91028 -4.4757 -4.10259
upperback -1.23729 -5.70615 2.62476
thorax 3.80852 -2.91248 4.36868
lowerneck -19.3034 -4.88915 -12.855
upperneck 21.0464 -6.26354 13.1936
head 10.8182 -2.39177 6.02894
lclavicle 3.70402e-14 5.83103e-15 0
lhumerus -26.7208 -35.8389 101.942
lradius 37.848 -0 0
lwrist 8.16863 0 0
lhand -8.24789 -25.2008 0.00292982
lfingers 7.12502 0 0
lthumb 17.67 4.01176 0.00156593
rclavicle 3.70402e-14 5.83103e-15 0
rhumerus -49.3315 5.31158 -82.1738
rradius 29.1697 -0 0
rwrist -14.0657 0 0
rhand -25.5074 -26.2443 -0.0187167
rfingers 7.12502 0 0
rthumb 1.02152 -56.2159 -0.0181145
331
root 9.55811 16.3642 10.5503 6.39325 8.93754 0.980213
lfemur 28.4227 6.45934 -15.6899
ltibia 8.26944e-14 0 0
lfoot 6.08322 -3.22564 0
ltoes -18.0026 0 0
rfemur -41.7613 2.36554 19.2712
rtibia 41.5131 0 0
rfoot -6.37333 0.534125 0
rtoes -16.0592 0 0
lowerback -7.92215 -4.41869 -3.70483
upperback -1.26205 -5.66969 2.7766
thorax 3.76192 -2.88852 4.31058
lowerneck -19.3102 -4.82077 -12.7845
upperneck 21.0156 -6.17929 13.1749
head 10.7916 -2.34926 6.02165
lclavicle 3.26255e-14 1.19271e-14 0
lhumerus -27.4178 -34.9605 102.352
lradius 37.197 0 0
lwrist 7.89553 0 0
lhand -8.8141 -25.3194 0
lfingers 7.12502 0 0
lthumb 17.1254 3.94587 0
rclavicle 3.26255e-14 1.19271e-14 0
rhumerus -49.0229 5.36685 -82.0674
rradius 28.8882 0 0
rwrist -13.6259 0 0
rhand -24.7849 -26.8377 0
rfingers 7.12502 0 0
rthumb 1.71933 -56.8105 0
332
root 9.53671 16.3937 10.7203 6.33909 9.27371 0.804644
lfemur 26.1102 6.55104 -15.0449
ltibia 4.83732 -0 0
lfoot 6.66441 -3.23584 -0.000258673
ltoes -16.7743 0 0
rfemur -41.0211 2.17095 19.7354
rtibia 41.6011 -0 0
rfoot -7.02717 0.66283 -0.00367286
rtoes -15.7464 0 0
lowerback -7.76856 -4.48267 -3.62627
upperback -1.30132 -5.76769 2.83723
thorax 3.64447 -2.93448 4.33169
lowerneck -19.4156 -4.86211 -12.7371
upperneck 21.0732 -6.24402 13.1661
head 10.8412 -2.3723 6.00199
lclavicle 2.76197e-14 6.49365e-15 0
lhumerus -27.6344 -33.5266 102.35
lradius 35.9252 -0 0
lwrist 7.3095 0 0
lhand -9.17948 -25.3717 0.000834357
lfingers 7.12502 0 0
lthumb 16.7736 3.92193 0.00036749
rclavicle 2.76197e-14 6.49365e-15 0
rhumerus -48.7522 5.27835 -81.9415
rradius 28.9791 -0 0
rwrist -13.5209 0 0
rhand -25.218 -26.7853 -0.00098974
rfingers 7.12502 0 0
rthumb 1.30097 -56.7591 -0.000939206
